<svg width="32.000000" height="32.000000" viewBox="0 0 32 32" fill="none" xmlns="http://www.w3.org/2000/svg" xmlns:xlink="http://www.w3.org/1999/xlink">
	<desc>
			Created with Pixso.
	</desc>
	<defs>
		<clipPath id="clip74_466">
			<rect id="telephone-receiver_icon-icons.com_56033 1" width="32.000000" height="32.000000" transform="translate(0.000000 -0.500000)" fill="white" fill-opacity="0"/>
		</clipPath>
	</defs>
	<rect id="telephone-receiver_icon-icons.com_56033 1" width="32.000000" height="32.000000" transform="translate(0.000000 -0.500000)" fill="#FFFFFF" fill-opacity="0"/>
	<g clip-path="url(#clip74_466)">
		<path id="Vector" d="M27.65 22.45L27.48 22.24C26.1 20.5 24.96 19.6 23.97 19.48C23.12 19.36 22.3 19.95 21.43 20.56L20.49 21.14C20.38 21.2 20.27 21.24 20.16 21.27C19.62 21.43 18.24 21.52 17.46 20.8C16.55 19.97 15.14 18.45 14.04 17.12C12.99 15.74 11.84 14.02 11.24 12.94C10.73 12.03 11.15 10.75 11.44 10.27C11.49 10.18 11.57 10.09 11.65 10L12.47 9.23C12.49 9.22 12.49 9.21 12.5 9.2C12.51 9.19 12.52 9.19 12.53 9.18C13.28 8.56 14.05 7.91 14.15 7.08C14.27 6.1 13.67 4.78 12.29 3.05L12.13 2.83C11.27 1.74 9.99 0.09 8.14 0.37C7.41 0.47 6.76 0.72 6.09 1.14C6.09 1.15 6.08 1.15 6.08 1.16C6.07 1.16 6.07 1.16 6.06 1.17L5.13 1.86C5.12 1.86 5.11 1.87 5.11 1.88C5.1 1.89 5.09 1.89 5.08 1.9C4.97 1.99 4.86 2.08 4.76 2.18C3.81 3.02 1.77 5.47 3.16 9.99C4.06 12.91 5.92 16.32 8.55 19.87L8.52 19.89L9.97 21.7L9.99 21.69C12.83 25.06 15.73 27.67 18.39 29.24C20.17 30.3 21.71 30.65 22.99 30.65C24.67 30.65 25.87 30.04 26.47 29.65L26.85 29.4C26.89 29.37 26.92 29.33 26.95 29.29L27.78 28.67C27.79 28.66 27.79 28.65 27.8 28.64C27.81 28.64 27.81 28.64 27.82 28.64C28.41 28.1 28.81 27.54 29.09 26.87C29.83 25.17 28.52 23.53 27.65 22.45ZM28.11 26.45C27.89 26.97 27.57 27.41 27.11 27.84L25.88 28.76C24.77 29.48 22.39 30.38 18.94 28.33C16.28 26.75 13.36 24.08 10.48 20.62L9.7 19.63C6.99 16.04 5.08 12.59 4.18 9.68C3.01 5.88 4.49 3.85 5.47 2.97C5.57 2.88 5.67 2.79 5.77 2.71L5.77 2.71L6.67 2.04C7.21 1.7 7.72 1.51 8.3 1.42C9.54 1.23 10.54 2.54 11.28 3.49L11.46 3.71C12.99 5.65 13.14 6.57 13.09 6.94C13.04 7.36 12.41 7.9 11.85 8.37L11.77 8.43C11.76 8.44 11.76 8.44 11.76 8.44C11.76 8.45 11.75 8.45 11.75 8.45L10.9 9.24C10.89 9.24 10.89 9.25 10.88 9.26C10.88 9.26 10.87 9.27 10.86 9.27C10.73 9.42 10.62 9.57 10.52 9.72C10.05 10.52 9.59 12.18 10.31 13.46C10.93 14.58 12.11 16.35 13.2 17.78C14.34 19.16 15.79 20.73 16.74 21.59C17.44 22.23 18.42 22.45 19.27 22.45C19.73 22.45 20.14 22.39 20.46 22.3C20.63 22.25 20.8 22.18 20.98 22.09C20.99 22.09 20.99 22.08 21 22.07C21.01 22.07 21.02 22.07 21.02 22.07L22.01 21.45C22.04 21.43 22.06 21.4 22.09 21.37L22.1 21.38C22.71 20.96 23.41 20.47 23.84 20.54C24.23 20.58 25.1 20.96 26.64 22.9L26.82 23.12C27.57 24.06 28.59 25.33 28.11 26.45Z" fill="#011C44" fill-opacity="1.000000" fill-rule="nonzero"/>
	</g>
</svg>
